<svg width="214" height="40" viewBox="0 0 214 40" fill="none" xmlns="http://www.w3.org/2000/svg">
<path d="M34.1422 5.85781C30.3647 2.08031 25.3422 0 20 0C14.6578 0 9.63531 2.08031 5.85781 5.85781C2.08031 9.63531 0 14.6578 0 20C0 25.3422 2.08039 30.3646 5.85781 34.1422C9.63523 37.9198 14.6578 40 20 40C25.3422 40 30.3647 37.9197 34.1422 34.1422C37.9197 30.3647 40 25.3422 40 20C40 14.6578 37.9196 9.63539 34.1422 5.85781Z" fill="#D35400"/>
<g clip-path="url(#clip0)">
<path d="M20.5714 8V33.1429" stroke="white" stroke-width="2" stroke-linecap="round" stroke-linejoin="round"/>
<path d="M26.2857 12.5714H17.7143C16.6534 12.5714 15.636 12.9929 14.8859 13.743C14.1357 14.4931 13.7143 15.5106 13.7143 16.5714C13.7143 17.6323 14.1357 18.6497 14.8859 19.3999C15.636 20.15 16.6534 20.5714 17.7143 20.5714H23.4286C24.4894 20.5714 25.5069 20.9929 26.257 21.743C27.0072 22.4932 27.4286 23.5106 27.4286 24.5714C27.4286 25.6323 27.0072 26.6497 26.257 27.3999C25.5069 28.15 24.4894 28.5714 23.4286 28.5714H13.7143" stroke="white" stroke-width="2" stroke-linecap="round" stroke-linejoin="round"/>
</g>
<path d="M59.592 16.504C59.992 15.88 60.544 15.376 61.248 14.992C61.952 14.608 62.776 14.416 63.72 14.416C64.824 14.416 65.824 14.696 66.72 15.256C67.616 15.816 68.32 16.616 68.832 17.656C69.36 18.696 69.624 19.904 69.624 21.28C69.624 22.656 69.36 23.872 68.832 24.928C68.32 25.968 67.616 26.776 66.72 27.352C65.824 27.912 64.824 28.192 63.72 28.192C62.792 28.192 61.968 28 61.248 27.616C60.544 27.232 59.992 26.736 59.592 26.128V34.384H55.488V14.608H59.592V16.504ZM65.448 21.28C65.448 20.256 65.16 19.456 64.584 18.88C64.024 18.288 63.328 17.992 62.496 17.992C61.68 17.992 60.984 18.288 60.408 18.88C59.848 19.472 59.568 20.28 59.568 21.304C59.568 22.328 59.848 23.136 60.408 23.728C60.984 24.32 61.68 24.616 62.496 24.616C63.312 24.616 64.008 24.32 64.584 23.728C65.16 23.12 65.448 22.304 65.448 21.28ZM77.8731 28.192C76.5611 28.192 75.3771 27.912 74.3211 27.352C73.2811 26.792 72.4571 25.992 71.8491 24.952C71.2571 23.912 70.9611 22.696 70.9611 21.304C70.9611 19.928 71.2651 18.72 71.8731 17.68C72.4811 16.624 73.3131 15.816 74.3691 15.256C75.4251 14.696 76.6091 14.416 77.9211 14.416C79.2331 14.416 80.4171 14.696 81.4731 15.256C82.5291 15.816 83.3611 16.624 83.9691 17.68C84.5771 18.72 84.8811 19.928 84.8811 21.304C84.8811 22.68 84.5691 23.896 83.9451 24.952C83.3371 25.992 82.4971 26.792 81.4251 27.352C80.3691 27.912 79.1851 28.192 77.8731 28.192ZM77.8731 24.64C78.6571 24.64 79.3211 24.352 79.8651 23.776C80.4251 23.2 80.7051 22.376 80.7051 21.304C80.7051 20.232 80.4331 19.408 79.8891 18.832C79.3611 18.256 78.7051 17.968 77.9211 17.968C77.1211 17.968 76.4571 18.256 75.9291 18.832C75.4011 19.392 75.1371 20.216 75.1371 21.304C75.1371 22.376 75.3931 23.2 75.9051 23.776C76.4331 24.352 77.0891 24.64 77.8731 24.64ZM86.2423 21.304C86.2423 19.912 86.5223 18.696 87.0823 17.656C87.6583 16.616 88.4503 15.816 89.4583 15.256C90.4823 14.696 91.6503 14.416 92.9623 14.416C94.6423 14.416 96.0423 14.856 97.1623 15.736C98.2983 16.616 99.0423 17.856 99.3943 19.456H95.0263C94.6583 18.432 93.9463 17.92 92.8903 17.92C92.1383 17.92 91.5383 18.216 91.0903 18.808C90.6423 19.384 90.4183 20.216 90.4183 21.304C90.4183 22.392 90.6423 23.232 91.0903 23.824C91.5383 24.4 92.1383 24.688 92.8903 24.688C93.9463 24.688 94.6583 24.176 95.0263 23.152H99.3943C99.0423 24.72 98.2983 25.952 97.1623 26.848C96.0263 27.744 94.6263 28.192 92.9623 28.192C91.6503 28.192 90.4823 27.912 89.4583 27.352C88.4503 26.792 87.6583 25.992 87.0823 24.952C86.5223 23.912 86.2423 22.696 86.2423 21.304ZM109.774 28L105.694 22.384V28H101.59V10.24H105.694V20.056L109.75 14.608H114.814L109.246 21.328L114.862 28H109.774ZM129.049 21.088C129.049 21.472 129.026 21.872 128.978 22.288H119.69C119.754 23.12 120.018 23.76 120.482 24.208C120.962 24.64 121.546 24.856 122.234 24.856C123.258 24.856 123.97 24.424 124.37 23.56H128.738C128.514 24.44 128.106 25.232 127.514 25.936C126.938 26.64 126.21 27.192 125.33 27.592C124.45 27.992 123.466 28.192 122.378 28.192C121.066 28.192 119.898 27.912 118.874 27.352C117.85 26.792 117.05 25.992 116.474 24.952C115.898 23.912 115.61 22.696 115.61 21.304C115.61 19.912 115.89 18.696 116.45 17.656C117.026 16.616 117.826 15.816 118.85 15.256C119.874 14.696 121.05 14.416 122.378 14.416C123.674 14.416 124.826 14.688 125.834 15.232C126.842 15.776 127.626 16.552 128.186 17.56C128.762 18.568 129.049 19.744 129.049 21.088ZM124.85 20.008C124.85 19.304 124.61 18.744 124.13 18.328C123.65 17.912 123.05 17.704 122.33 17.704C121.642 17.704 121.058 17.904 120.578 18.304C120.114 18.704 119.826 19.272 119.714 20.008H124.85ZM138.679 24.52V28H136.591C135.103 28 133.943 27.64 133.111 26.92C132.279 26.184 131.863 24.992 131.863 23.344V18.016H130.231V14.608H131.863V11.344H135.967V14.608H138.655V18.016H135.967V23.392C135.967 23.792 136.063 24.08 136.255 24.256C136.447 24.432 136.767 24.52 137.215 24.52H138.679ZM150.155 16.504C150.539 15.88 151.091 15.376 151.811 14.992C152.531 14.608 153.355 14.416 154.283 14.416C155.387 14.416 156.387 14.696 157.283 15.256C158.179 15.816 158.883 16.616 159.395 17.656C159.923 18.696 160.187 19.904 160.187 21.28C160.187 22.656 159.923 23.872 159.395 24.928C158.883 25.968 158.179 26.776 157.283 27.352C156.387 27.912 155.387 28.192 154.283 28.192C153.339 28.192 152.515 28.008 151.811 27.64C151.107 27.256 150.555 26.752 150.155 26.128V28H146.051V10.24H150.155V16.504ZM156.011 21.28C156.011 20.256 155.723 19.456 155.147 18.88C154.587 18.288 153.891 17.992 153.059 17.992C152.243 17.992 151.547 18.288 150.971 18.88C150.411 19.472 150.131 20.28 150.131 21.304C150.131 22.328 150.411 23.136 150.971 23.728C151.547 24.32 152.243 24.616 153.059 24.616C153.875 24.616 154.571 24.32 155.147 23.728C155.723 23.12 156.011 22.304 156.011 21.28ZM161.524 21.28C161.524 19.904 161.78 18.696 162.292 17.656C162.82 16.616 163.532 15.816 164.428 15.256C165.324 14.696 166.324 14.416 167.428 14.416C168.372 14.416 169.196 14.608 169.9 14.992C170.62 15.376 171.172 15.88 171.556 16.504V14.608H175.66V28H171.556V26.104C171.156 26.728 170.596 27.232 169.876 27.616C169.172 28 168.348 28.192 167.404 28.192C166.316 28.192 165.324 27.912 164.428 27.352C163.532 26.776 162.82 25.968 162.292 24.928C161.78 23.872 161.524 22.656 161.524 21.28ZM171.556 21.304C171.556 20.28 171.268 19.472 170.692 18.88C170.132 18.288 169.444 17.992 168.628 17.992C167.812 17.992 167.116 18.288 166.54 18.88C165.98 19.456 165.7 20.256 165.7 21.28C165.7 22.304 165.98 23.12 166.54 23.728C167.116 24.32 167.812 24.616 168.628 24.616C169.444 24.616 170.132 24.32 170.692 23.728C171.268 23.136 171.556 22.328 171.556 21.304ZM186.789 14.464C188.357 14.464 189.605 14.976 190.533 16C191.477 17.008 191.949 18.4 191.949 20.176V28H187.869V20.728C187.869 19.832 187.637 19.136 187.173 18.64C186.709 18.144 186.085 17.896 185.301 17.896C184.517 17.896 183.893 18.144 183.429 18.64C182.965 19.136 182.733 19.832 182.733 20.728V28H178.629V14.608H182.733V16.384C183.149 15.792 183.709 15.328 184.413 14.992C185.117 14.64 185.909 14.464 186.789 14.464ZM202.985 28L198.905 22.384V28H194.801V10.24H198.905V20.056L202.961 14.608H208.025L202.457 21.328L208.073 28H202.985Z" fill="#E5E5E5"/>
<defs>
<clipPath id="clip0">
<rect width="27.4286" height="27.4286" fill="white" transform="translate(6.85715 6.85714)"/>
</clipPath>
</defs>
</svg>
