<svg width="214" height="40" viewBox="0 0 214 40" fill="none" xmlns="http://www.w3.org/2000/svg">
<path d="M34.1422 5.85781C30.3647 2.08031 25.3422 0 20 0C14.6578 0 9.63531 2.08031 5.85781 5.85781C2.08031 9.63531 0 14.6578 0 20C0 25.3422 2.08039 30.3646 5.85781 34.1422C9.63523 37.9198 14.6578 40 20 40C25.3422 40 30.3647 37.9197 34.1422 34.1422C37.9197 30.3647 40 25.3422 40 20C40 14.6578 37.9196 9.63539 34.1422 5.85781Z" fill="#D35400"/>
<g clip-path="url(#clip0)">
<path d="M20.5714 8V33.1429" stroke="white" stroke-width="2" stroke-linecap="round" stroke-linejoin="round"/>
<path d="M26.2857 12.5714H17.7143C16.6534 12.5714 15.636 12.9929 14.8859 13.743C14.1357 14.4931 13.7143 15.5106 13.7143 16.5714C13.7143 17.6323 14.1357 18.6497 14.8859 19.3999C15.636 20.15 16.6534 20.5714 17.7143 20.5714H23.4286C24.4894 20.5714 25.5069 20.9929 26.257 21.743C27.0072 22.4932 27.4286 23.5106 27.4286 24.5714C27.4286 25.6323 27.0072 26.6497 26.257 27.3999C25.5069 28.15 24.4894 28.5714 23.4286 28.5714H13.7143" stroke="white" stroke-width="2" stroke-linecap="round" stroke-linejoin="round"/>
</g>
<path d="M59.592 10.24V28H55.488V10.24H59.592ZM61.7501 21.28C61.7501 19.904 62.0061 18.696 62.5181 17.656C63.0461 16.616 63.7581 15.816 64.6541 15.256C65.5501 14.696 66.5501 14.416 67.6541 14.416C68.5981 14.416 69.4221 14.608 70.1261 14.992C70.8461 15.376 71.3981 15.88 71.7821 16.504V14.608H75.8861V28H71.7821V26.104C71.3821 26.728 70.8221 27.232 70.1021 27.616C69.3981 28 68.5741 28.192 67.6301 28.192C66.5421 28.192 65.5501 27.912 64.6541 27.352C63.7581 26.776 63.0461 25.968 62.5181 24.928C62.0061 23.872 61.7501 22.656 61.7501 21.28ZM71.7821 21.304C71.7821 20.28 71.4941 19.472 70.9181 18.88C70.3581 18.288 69.6701 17.992 68.8541 17.992C68.0381 17.992 67.3421 18.288 66.7661 18.88C66.2061 19.456 65.9261 20.256 65.9261 21.28C65.9261 22.304 66.2061 23.12 66.7661 23.728C67.3421 24.32 68.0381 24.616 68.8541 24.616C69.6701 24.616 70.3581 24.32 70.9181 23.728C71.4941 23.136 71.7821 22.328 71.7821 21.304ZM83.1251 21.304C83.1251 19.912 83.4051 18.696 83.9651 17.656C84.5411 16.616 85.3331 15.816 86.3411 15.256C87.3651 14.696 88.5331 14.416 89.8451 14.416C91.5251 14.416 92.9251 14.856 94.0451 15.736C95.1811 16.616 95.9251 17.856 96.2771 19.456H91.9091C91.5411 18.432 90.8291 17.92 89.7731 17.92C89.0211 17.92 88.4211 18.216 87.9731 18.808C87.5251 19.384 87.3011 20.216 87.3011 21.304C87.3011 22.392 87.5251 23.232 87.9731 23.824C88.4211 24.4 89.0211 24.688 89.7731 24.688C90.8291 24.688 91.5411 24.176 91.9091 23.152H96.2771C95.9251 24.72 95.1811 25.952 94.0451 26.848C92.9091 27.744 91.5091 28.192 89.8451 28.192C88.5331 28.192 87.3651 27.912 86.3411 27.352C85.3331 26.792 84.5411 25.992 83.9651 24.952C83.4051 23.912 83.1251 22.696 83.1251 21.304ZM97.6564 21.28C97.6564 19.904 97.9124 18.696 98.4244 17.656C98.9524 16.616 99.6644 15.816 100.56 15.256C101.456 14.696 102.456 14.416 103.56 14.416C104.504 14.416 105.328 14.608 106.032 14.992C106.752 15.376 107.304 15.88 107.688 16.504V14.608H111.792V28H107.688V26.104C107.288 26.728 106.728 27.232 106.008 27.616C105.304 28 104.48 28.192 103.536 28.192C102.448 28.192 101.456 27.912 100.56 27.352C99.6644 26.776 98.9524 25.968 98.4244 24.928C97.9124 23.872 97.6564 22.656 97.6564 21.28ZM107.688 21.304C107.688 20.28 107.4 19.472 106.824 18.88C106.264 18.288 105.576 17.992 104.76 17.992C103.944 17.992 103.248 18.288 102.672 18.88C102.112 19.456 101.832 20.256 101.832 21.28C101.832 22.304 102.112 23.12 102.672 23.728C103.248 24.32 103.944 24.616 104.76 24.616C105.576 24.616 106.264 24.32 106.824 23.728C107.4 23.136 107.688 22.328 107.688 21.304ZM118.865 16.84C119.345 16.104 119.945 15.528 120.665 15.112C121.385 14.68 122.185 14.464 123.065 14.464V18.808H121.937C120.913 18.808 120.145 19.032 119.633 19.48C119.121 19.912 118.865 20.68 118.865 21.784V28H114.761V14.608H118.865V16.84ZM132.491 24.52V28H130.403C128.915 28 127.755 27.64 126.923 26.92C126.091 26.184 125.675 24.992 125.675 23.344V18.016H124.043V14.608H125.675V11.344H129.779V14.608H132.467V18.016H129.779V23.392C129.779 23.792 129.875 24.08 130.067 24.256C130.259 24.432 130.579 24.52 131.027 24.52H132.491ZM147.401 21.088C147.401 21.472 147.377 21.872 147.329 22.288H138.041C138.105 23.12 138.369 23.76 138.833 24.208C139.313 24.64 139.897 24.856 140.585 24.856C141.609 24.856 142.321 24.424 142.721 23.56H147.089C146.865 24.44 146.457 25.232 145.865 25.936C145.289 26.64 144.561 27.192 143.681 27.592C142.801 27.992 141.817 28.192 140.729 28.192C139.417 28.192 138.249 27.912 137.225 27.352C136.201 26.792 135.401 25.992 134.825 24.952C134.249 23.912 133.961 22.696 133.961 21.304C133.961 19.912 134.241 18.696 134.801 17.656C135.377 16.616 136.177 15.816 137.201 15.256C138.225 14.696 139.401 14.416 140.729 14.416C142.025 14.416 143.177 14.688 144.185 15.232C145.193 15.776 145.977 16.552 146.537 17.56C147.113 18.568 147.401 19.744 147.401 21.088ZM143.201 20.008C143.201 19.304 142.961 18.744 142.481 18.328C142.001 17.912 141.401 17.704 140.681 17.704C139.993 17.704 139.409 17.904 138.929 18.304C138.465 18.704 138.177 19.272 138.065 20.008H143.201ZM151.63 13.216C150.91 13.216 150.318 13.008 149.854 12.592C149.406 12.16 149.182 11.632 149.182 11.008C149.182 10.368 149.406 9.84 149.854 9.424C150.318 8.992 150.91 8.776 151.63 8.776C152.334 8.776 152.91 8.992 153.358 9.424C153.822 9.84 154.054 10.368 154.054 11.008C154.054 11.632 153.822 12.16 153.358 12.592C152.91 13.008 152.334 13.216 151.63 13.216ZM153.67 14.608V28H149.566V14.608H153.67ZM160.748 16.84C161.228 16.104 161.828 15.528 162.548 15.112C163.268 14.68 164.068 14.464 164.948 14.464V18.808H163.82C162.796 18.808 162.028 19.032 161.516 19.48C161.004 19.912 160.748 20.68 160.748 21.784V28H156.644V14.608H160.748V16.84ZM166.094 21.28C166.094 19.904 166.35 18.696 166.862 17.656C167.39 16.616 168.102 15.816 168.998 15.256C169.894 14.696 170.894 14.416 171.998 14.416C172.942 14.416 173.766 14.608 174.47 14.992C175.19 15.376 175.742 15.88 176.126 16.504V14.608H180.23V28H176.126V26.104C175.726 26.728 175.166 27.232 174.446 27.616C173.742 28 172.918 28.192 171.974 28.192C170.886 28.192 169.894 27.912 168.998 27.352C168.102 26.776 167.39 25.968 166.862 24.928C166.35 23.872 166.094 22.656 166.094 21.28ZM176.126 21.304C176.126 20.28 175.838 19.472 175.262 18.88C174.702 18.288 174.014 17.992 173.198 17.992C172.382 17.992 171.686 18.288 171.11 18.88C170.55 19.456 170.27 20.256 170.27 21.28C170.27 22.304 170.55 23.12 171.11 23.728C171.686 24.32 172.382 24.616 173.198 24.616C174.014 24.616 174.702 24.32 175.262 23.728C175.838 23.136 176.126 22.328 176.126 21.304Z" fill="#E5E5E5"/>
<defs>
<clipPath id="clip0">
<rect width="27.4286" height="27.4286" fill="white" transform="translate(6.85715 6.85714)"/>
</clipPath>
</defs>
</svg>
